<svg xmlns="http://www.w3.org/2000/svg" version="1.1" xmlns:xlink="http://www.w3.org/1999/xlink" xmlns:svgjs="http://svgjs.dev/svgjs" viewBox="0 0 800 800"><defs><linearGradient x1="50%" y1="0%" x2="50%" y2="100%" id="ffflurry-grad" gradientTransform="rotate(270)"><stop stop-color="hsl(0, 0%, 100%)" stop-opacity="1" offset="0%"></stop><stop stop-color="#226500" stop-opacity="1" offset="45%"></stop><stop stop-color="#69FFBC" stop-opacity="1" offset="100%"></stop></linearGradient></defs><rect width="100%" height="100%" fill="hsl(0, 0%, 100%)"></rect><g fill="url(#ffflurry-grad)"><rect width="558" height="1" x="-36" y="125.5" rx="0.5" transform="rotate(236, 243, 126)" opacity="0.23"></rect><rect width="260" height="1" x="539" y="405.5" rx="0.5" transform="rotate(236, 669, 406)" opacity="0.87"></rect><rect width="305" height="1" x="426.5" y="79.5" rx="0.5" transform="rotate(236, 579, 80)" opacity="0.34"></rect><rect width="183" height="1" x="385.5" y="337.5" rx="0.5" transform="rotate(236, 477, 338)" opacity="0.60"></rect><rect width="235" height="1" x="117.5" y="516.5" rx="0.5" transform="rotate(236, 235, 517)" opacity="0.32"></rect><rect width="294" height="1" x="-121" y="634.5" rx="0.5" transform="rotate(236, 26, 635)" opacity="0.37"></rect><rect width="288" height="1" x="482" y="17.5" rx="0.5" transform="rotate(236, 626, 18)" opacity="0.39"></rect><rect width="447" height="1" x="134.5" y="453.5" rx="0.5" transform="rotate(236, 358, 454)" opacity="0.85"></rect><rect width="721" height="1" x="185.5" y="580.5" rx="0.5" transform="rotate(236, 546, 581)" opacity="0.86"></rect><rect width="423" height="1" x="62.5" y="316.5" rx="0.5" transform="rotate(236, 274, 317)" opacity="0.57"></rect><rect width="275" height="1" x="278.5" y="296.5" rx="0.5" transform="rotate(236, 416, 297)" opacity="0.39"></rect><rect width="441" height="1" x="264.5" y="778.5" rx="0.5" transform="rotate(236, 485, 779)" opacity="0.40"></rect><rect width="84" height="1" x="719" y="86.5" rx="0.5" transform="rotate(236, 761, 87)" opacity="0.80"></rect><rect width="341" height="1" x="458.5" y="488.5" rx="0.5" transform="rotate(236, 629, 489)" opacity="0.95"></rect><rect width="436" height="1" x="281" y="438.5" rx="0.5" transform="rotate(236, 499, 439)" opacity="0.47"></rect><rect width="202" height="1" x="65" y="126.5" rx="0.5" transform="rotate(236, 166, 127)" opacity="0.44"></rect><rect width="74" height="1" x="481" y="730.5" rx="0.5" transform="rotate(236, 518, 731)" opacity="0.42"></rect><rect width="264" height="1" x="158" y="513.5" rx="0.5" transform="rotate(236, 290, 514)" opacity="0.70"></rect><rect width="98" height="1" x="581" y="90.5" rx="0.5" transform="rotate(236, 630, 91)" opacity="0.48"></rect><rect width="70" height="1" x="200" y="30.5" rx="0.5" transform="rotate(236, 235, 31)" opacity="0.67"></rect><rect width="303" height="1" x="234.5" y="384.5" rx="0.5" transform="rotate(236, 386, 385)" opacity="0.44"></rect><rect width="508" height="1" x="-168" y="623.5" rx="0.5" transform="rotate(236, 86, 624)" opacity="0.59"></rect><rect width="71" height="1" x="308.5" y="577.5" rx="0.5" transform="rotate(236, 344, 578)" opacity="0.73"></rect><rect width="657" height="1" x="-8.5" y="718.5" rx="0.5" transform="rotate(236, 320, 719)" opacity="0.39"></rect><rect width="88" height="1" x="4" y="337.5" rx="0.5" transform="rotate(236, 48, 338)" opacity="0.88"></rect><rect width="62" height="1" x="72" y="547.5" rx="0.5" transform="rotate(236, 103, 548)" opacity="0.68"></rect><rect width="495" height="1" x="217.5" y="582.5" rx="0.5" transform="rotate(236, 465, 583)" opacity="0.58"></rect><rect width="377" height="1" x="251.5" y="661.5" rx="0.5" transform="rotate(236, 440, 662)" opacity="0.57"></rect><rect width="236" height="1" x="340" y="39.5" rx="0.5" transform="rotate(236, 458, 40)" opacity="0.99"></rect><rect width="193" height="1" x="472.5" y="719.5" rx="0.5" transform="rotate(236, 569, 720)" opacity="0.47"></rect><rect width="387" height="1" x="82.5" y="563.5" rx="0.5" transform="rotate(236, 276, 564)" opacity="0.52"></rect><rect width="161" height="1" x="522.5" y="46.5" rx="0.5" transform="rotate(236, 603, 47)" opacity="0.29"></rect><rect width="155" height="1" x="682.5" y="611.5" rx="0.5" transform="rotate(236, 760, 612)" opacity="0.43"></rect><rect width="322" height="1" x="469" y="435.5" rx="0.5" transform="rotate(236, 630, 436)" opacity="0.27"></rect><rect width="261" height="1" x="188.5" y="485.5" rx="0.5" transform="rotate(236, 319, 486)" opacity="0.42"></rect><rect width="295" height="1" x="-115.5" y="562.5" rx="0.5" transform="rotate(236, 32, 563)" opacity="0.47"></rect><rect width="112" height="1" x="711" y="450.5" rx="0.5" transform="rotate(236, 767, 451)" opacity="0.32"></rect><rect width="520" height="1" x="192" y="518.5" rx="0.5" transform="rotate(236, 452, 519)" opacity="0.18"></rect><rect width="611" height="1" x="-124.5" y="574.5" rx="0.5" transform="rotate(236, 181, 575)" opacity="0.98"></rect><rect width="369" height="1" x="57.5" y="610.5" rx="0.5" transform="rotate(236, 242, 611)" opacity="0.61"></rect><rect width="323" height="1" x="-11.5" y="747.5" rx="0.5" transform="rotate(236, 150, 748)" opacity="0.57"></rect><rect width="328" height="1" x="211" y="210.5" rx="0.5" transform="rotate(236, 375, 211)" opacity="0.26"></rect><rect width="291" height="1" x="358.5" y="32.5" rx="0.5" transform="rotate(236, 504, 33)" opacity="0.20"></rect><rect width="282" height="1" x="617" y="146.5" rx="0.5" transform="rotate(236, 758, 147)" opacity="0.20"></rect><rect width="135" height="1" x="137.5" y="416.5" rx="0.5" transform="rotate(236, 205, 417)" opacity="0.54"></rect><rect width="234" height="1" x="-24" y="680.5" rx="0.5" transform="rotate(236, 93, 681)" opacity="0.55"></rect><rect width="119" height="1" x="140.5" y="469.5" rx="0.5" transform="rotate(236, 200, 470)" opacity="0.19"></rect><rect width="298" height="1" x="539" y="115.5" rx="0.5" transform="rotate(236, 688, 116)" opacity="0.72"></rect><rect width="275" height="1" x="641.5" y="28.5" rx="0.5" transform="rotate(236, 779, 29)" opacity="0.88"></rect><rect width="526" height="1" x="360" y="149.5" rx="0.5" transform="rotate(236, 623, 150)" opacity="0.99"></rect><rect width="245" height="1" x="-84.5" y="109.5" rx="0.5" transform="rotate(236, 38, 110)" opacity="0.12"></rect><rect width="596" height="1" x="368" y="595.5" rx="0.5" transform="rotate(236, 666, 596)" opacity="0.65"></rect><rect width="466" height="1" x="324" y="410.5" rx="0.5" transform="rotate(236, 557, 411)" opacity="0.63"></rect><rect width="522" height="1" x="3" y="772.5" rx="0.5" transform="rotate(236, 264, 773)" opacity="0.13"></rect><rect width="404" height="1" x="-67" y="250.5" rx="0.5" transform="rotate(236, 135, 251)" opacity="0.82"></rect><rect width="167" height="1" x="-46.5" y="489.5" rx="0.5" transform="rotate(236, 37, 490)" opacity="0.20"></rect><rect width="698" height="1" x="11" y="662.5" rx="0.5" transform="rotate(236, 360, 663)" opacity="0.58"></rect><rect width="228" height="1" x="154" y="453.5" rx="0.5" transform="rotate(236, 268, 454)" opacity="0.35"></rect><rect width="479" height="1" x="392.5" y="774.5" rx="0.5" transform="rotate(236, 632, 775)" opacity="0.17"></rect><rect width="584" height="1" x="464" y="765.5" rx="0.5" transform="rotate(236, 756, 766)" opacity="0.36"></rect><rect width="560" height="1" x="407" y="282.5" rx="0.5" transform="rotate(236, 687, 283)" opacity="0.65"></rect><rect width="535" height="1" x="-111.5" y="307.5" rx="0.5" transform="rotate(236, 156, 308)" opacity="0.44"></rect><rect width="527" height="1" x="36.5" y="230.5" rx="0.5" transform="rotate(236, 300, 231)" opacity="0.10"></rect><rect width="306" height="1" x="0" y="641.5" rx="0.5" transform="rotate(236, 153, 642)" opacity="0.72"></rect><rect width="134" height="1" x="-52" y="189.5" rx="0.5" transform="rotate(236, 15, 190)" opacity="0.99"></rect><rect width="419" height="1" x="314.5" y="654.5" rx="0.5" transform="rotate(236, 524, 655)" opacity="0.56"></rect><rect width="499" height="1" x="293.5" y="98.5" rx="0.5" transform="rotate(236, 543, 99)" opacity="0.34"></rect><rect width="80" height="1" x="557" y="681.5" rx="0.5" transform="rotate(236, 597, 682)" opacity="0.65"></rect><rect width="317" height="1" x="378.5" y="783.5" rx="0.5" transform="rotate(236, 537, 784)" opacity="0.76"></rect><rect width="35" height="1" x="29.5" y="706.5" rx="0.5" transform="rotate(236, 47, 707)" opacity="0.28"></rect><rect width="402" height="1" x="459" y="197.5" rx="0.5" transform="rotate(236, 660, 198)" opacity="0.30"></rect><rect width="705" height="1" x="346.5" y="468.5" rx="0.5" transform="rotate(236, 699, 469)" opacity="0.53"></rect><rect width="278" height="1" x="461" y="763.5" rx="0.5" transform="rotate(236, 600, 764)" opacity="0.71"></rect><rect width="194" height="1" x="246" y="775.5" rx="0.5" transform="rotate(236, 343, 776)" opacity="0.28"></rect><rect width="611" height="1" x="266.5" y="523.5" rx="0.5" transform="rotate(236, 572, 524)" opacity="0.40"></rect><rect width="205" height="1" x="286.5" y="337.5" rx="0.5" transform="rotate(236, 389, 338)" opacity="0.10"></rect><rect width="155" height="1" x="651.5" y="27.5" rx="0.5" transform="rotate(236, 729, 28)" opacity="0.33"></rect><rect width="504" height="1" x="-128" y="390.5" rx="0.5" transform="rotate(236, 124, 391)" opacity="0.49"></rect><rect width="522" height="1" x="447" y="542.5" rx="0.5" transform="rotate(236, 708, 543)" opacity="0.08"></rect><rect width="287" height="1" x="-38.5" y="451.5" rx="0.5" transform="rotate(236, 105, 452)" opacity="0.94"></rect><rect width="241" height="1" x="-69.5" y="194.5" rx="0.5" transform="rotate(236, 51, 195)" opacity="0.73"></rect><rect width="309" height="1" x="412.5" y="771.5" rx="0.5" transform="rotate(236, 567, 772)" opacity="0.51"></rect><rect width="538" height="1" x="-155" y="143.5" rx="0.5" transform="rotate(236, 114, 144)" opacity="0.29"></rect><rect width="339" height="1" x="250.5" y="153.5" rx="0.5" transform="rotate(236, 420, 154)" opacity="0.16"></rect><rect width="61" height="1" x="719.5" y="524.5" rx="0.5" transform="rotate(236, 750, 525)" opacity="0.67"></rect><rect width="89" height="1" x="481.5" y="352.5" rx="0.5" transform="rotate(236, 526, 353)" opacity="0.76"></rect><rect width="599" height="1" x="331.5" y="269.5" rx="0.5" transform="rotate(236, 631, 270)" opacity="0.54"></rect><rect width="135" height="1" x="160.5" y="255.5" rx="0.5" transform="rotate(236, 228, 256)" opacity="0.72"></rect><rect width="216" height="1" x="87" y="183.5" rx="0.5" transform="rotate(236, 195, 184)" opacity="0.83"></rect><rect width="48" height="1" x="646" y="347.5" rx="0.5" transform="rotate(236, 670, 348)" opacity="0.24"></rect><rect width="392" height="1" x="-156" y="405.5" rx="0.5" transform="rotate(236, 40, 406)" opacity="0.25"></rect><rect width="278" height="1" x="258" y="522.5" rx="0.5" transform="rotate(236, 397, 523)" opacity="0.68"></rect><rect width="208" height="1" x="350" y="738.5" rx="0.5" transform="rotate(236, 454, 739)" opacity="0.54"></rect><rect width="586" height="1" x="-137" y="503.5" rx="0.5" transform="rotate(236, 156, 504)" opacity="0.24"></rect><rect width="234" height="1" x="421" y="13.5" rx="0.5" transform="rotate(236, 538, 14)" opacity="0.12"></rect><rect width="706" height="1" x="133" y="114.5" rx="0.5" transform="rotate(236, 486, 115)" opacity="0.99"></rect><rect width="212" height="1" x="608" y="192.5" rx="0.5" transform="rotate(236, 714, 193)" opacity="0.81"></rect><rect width="498" height="1" x="468" y="698.5" rx="0.5" transform="rotate(236, 717, 699)" opacity="0.11"></rect><rect width="180" height="1" x="687" y="216.5" rx="0.5" transform="rotate(236, 777, 217)" opacity="0.22"></rect><rect width="250" height="1" x="174" y="161.5" rx="0.5" transform="rotate(236, 299, 162)" opacity="0.45"></rect><rect width="163" height="1" x="648.5" y="247.5" rx="0.5" transform="rotate(236, 730, 248)" opacity="0.86"></rect><rect width="114" height="1" x="716" y="694.5" rx="0.5" transform="rotate(236, 773, 695)" opacity="0.86"></rect><rect width="368" height="1" x="155" y="289.5" rx="0.5" transform="rotate(236, 339, 290)" opacity="0.39"></rect><rect width="278" height="1" x="623" y="306.5" rx="0.5" transform="rotate(236, 762, 307)" opacity="0.57"></rect><rect width="503" height="1" x="374.5" y="645.5" rx="0.5" transform="rotate(236, 626, 646)" opacity="0.64"></rect><rect width="475" height="1" x="275.5" y="180.5" rx="0.5" transform="rotate(236, 513, 181)" opacity="0.52"></rect><rect width="181" height="1" x="422.5" y="242.5" rx="0.5" transform="rotate(236, 513, 243)" opacity="0.65"></rect><rect width="271" height="1" x="191.5" y="371.5" rx="0.5" transform="rotate(236, 327, 372)" opacity="0.82"></rect><rect width="321" height="1" x="167.5" y="64.5" rx="0.5" transform="rotate(236, 328, 65)" opacity="0.27"></rect><rect width="542" height="1" x="191" y="387.5" rx="0.5" transform="rotate(236, 462, 388)" opacity="0.42"></rect><rect width="329" height="1" x="-29.5" y="706.5" rx="0.5" transform="rotate(236, 135, 707)" opacity="0.75"></rect><rect width="398" height="1" x="438" y="543.5" rx="0.5" transform="rotate(236, 637, 544)" opacity="0.34"></rect><rect width="237" height="1" x="452.5" y="156.5" rx="0.5" transform="rotate(236, 571, 157)" opacity="0.56"></rect><rect width="231" height="1" x="63.5" y="68.5" rx="0.5" transform="rotate(236, 179, 69)" opacity="0.99"></rect><rect width="437" height="1" x="533.5" y="380.5" rx="0.5" transform="rotate(236, 752, 381)" opacity="0.09"></rect><rect width="204" height="1" x="460" y="31.5" rx="0.5" transform="rotate(236, 562, 32)" opacity="0.14"></rect><rect width="424" height="1" x="-126" y="281.5" rx="0.5" transform="rotate(236, 86, 282)" opacity="0.71"></rect><rect width="199" height="1" x="587.5" y="776.5" rx="0.5" transform="rotate(236, 687, 777)" opacity="0.83"></rect><rect width="386" height="1" x="393" y="370.5" rx="0.5" transform="rotate(236, 586, 371)" opacity="0.16"></rect><rect width="407" height="1" x="400.5" y="325.5" rx="0.5" transform="rotate(236, 604, 326)" opacity="0.88"></rect><rect width="661" height="1" x="172.5" y="498.5" rx="0.5" transform="rotate(236, 503, 499)" opacity="0.42"></rect><rect width="594" height="1" x="-35" y="708.5" rx="0.5" transform="rotate(236, 262, 709)" opacity="0.84"></rect><rect width="188" height="1" x="-64" y="761.5" rx="0.5" transform="rotate(236, 30, 762)" opacity="0.31"></rect><rect width="131" height="1" x="622.5" y="655.5" rx="0.5" transform="rotate(236, 688, 656)" opacity="0.58"></rect><rect width="304" height="1" x="294" y="231.5" rx="0.5" transform="rotate(236, 446, 232)" opacity="0.62"></rect><rect width="392" height="1" x="-3" y="773.5" rx="0.5" transform="rotate(236, 193, 774)" opacity="0.41"></rect><rect width="32" height="1" x="662" y="40.5" rx="0.5" transform="rotate(236, 678, 41)" opacity="0.99"></rect><rect width="78" height="1" x="182" y="657.5" rx="0.5" transform="rotate(236, 221, 658)" opacity="0.96"></rect><rect width="457" height="1" x="185.5" y="421.5" rx="0.5" transform="rotate(236, 414, 422)" opacity="0.73"></rect><rect width="461" height="1" x="117.5" y="524.5" rx="0.5" transform="rotate(236, 348, 525)" opacity="0.71"></rect><rect width="322" height="1" x="1" y="359.5" rx="0.5" transform="rotate(236, 162, 360)" opacity="0.78"></rect><rect width="31" height="1" x="769.5" y="528.5" rx="0.5" transform="rotate(236, 785, 529)" opacity="0.59"></rect><rect width="90" height="1" x="181" y="353.5" rx="0.5" transform="rotate(236, 226, 354)" opacity="0.79"></rect><rect width="361" height="1" x="243.5" y="465.5" rx="0.5" transform="rotate(236, 424, 466)" opacity="0.74"></rect><rect width="488" height="1" x="-166" y="38.5" rx="0.5" transform="rotate(236, 78, 39)" opacity="0.13"></rect><rect width="370" height="1" x="474" y="728.5" rx="0.5" transform="rotate(236, 659, 729)" opacity="0.63"></rect><rect width="633" height="1" x="82.5" y="599.5" rx="0.5" transform="rotate(236, 399, 600)" opacity="0.93"></rect><rect width="120" height="1" x="420" y="290.5" rx="0.5" transform="rotate(236, 480, 291)" opacity="0.52"></rect><rect width="432" height="1" x="85" y="634.5" rx="0.5" transform="rotate(236, 301, 635)" opacity="0.98"></rect><rect width="39" height="1" x="80.5" y="772.5" rx="0.5" transform="rotate(236, 100, 773)" opacity="0.39"></rect><rect width="238" height="1" x="277" y="743.5" rx="0.5" transform="rotate(236, 396, 744)" opacity="0.58"></rect><rect width="323" height="1" x="13.5" y="226.5" rx="0.5" transform="rotate(236, 175, 227)" opacity="0.48"></rect><rect width="315" height="1" x="43.5" y="709.5" rx="0.5" transform="rotate(236, 201, 710)" opacity="0.86"></rect><rect width="99" height="1" x="523.5" y="460.5" rx="0.5" transform="rotate(236, 573, 461)" opacity="0.24"></rect><rect width="321" height="1" x="132.5" y="411.5" rx="0.5" transform="rotate(236, 293, 412)" opacity="0.83"></rect><rect width="76" height="1" x="519" y="287.5" rx="0.5" transform="rotate(236, 557, 288)" opacity="0.46"></rect><rect width="98" height="1" x="538" y="222.5" rx="0.5" transform="rotate(236, 587, 223)" opacity="0.53"></rect><rect width="282" height="1" x="262" y="60.5" rx="0.5" transform="rotate(236, 403, 61)" opacity="0.42"></rect><rect width="567" height="1" x="-188.5" y="208.5" rx="0.5" transform="rotate(236, 95, 209)" opacity="0.67"></rect><rect width="40" height="1" x="6" y="269.5" rx="0.5" transform="rotate(236, 26, 270)" opacity="0.64"></rect></g></svg>